<svg xmlns="http://www.w3.org/2000/svg" viewBox="0 0 263 235"><defs><style>.cls-1{fill:#ff9d00;}</style></defs><g id="Livello_2" data-name="Livello 2"><g id="Livello_1-2" data-name="Livello 1"><path class="cls-1" d="M24.42,48.22a48.34,48.34,0,0,1,6.86,1.86A54.8,54.8,0,0,1,48.56,60.32a42.31,42.31,0,0,1,8.36,11c2.4,4.3,13,25.08,27.66,54.05,12,23.73,13.53,26.73,14.92,28.77a10.35,10.35,0,0,0,8.15,4.64,12.59,12.59,0,0,0,4.5-1.07,11,11,0,0,0,2.89-2.6c.68-1,1.47-2.58,7-14.11l3.91-8.08c3.75-7.75,6.24-13,9.2-19.25,9.63-20.44,11.41-24.18,15.64-32.88l3.38-6.93c4.42-9.08,9.58-19.49,10.73-21.63a115.69,115.69,0,0,1,13.72-19.94C181.56,28.94,188.74,22,189.32,22c.09,0,.2-.1.25-.23.29-.78,8.24-6.45,12.4-8.86,1.88-1.09,7.62-3.92,10-4.92A93.8,93.8,0,0,1,239.46,1.1l2.17-.23C244.09.55,262.78-.17,263,0A14.41,14.41,0,0,1,262.84,2c-.07.61-.14,1.23-.22,1.85l-3.19,6.39c-1.76,3.51-3.49,7-3.84,7.81-.22.47-.43.95-.65,1.42l-.72,0-1.42.05a86.81,86.81,0,0,0-9,.52,4.8,4.8,0,0,1-1.15.11,7.64,7.64,0,0,0-1.61.19,20.6,20.6,0,0,1-3.79.54,2.26,2.26,0,0,0-1.06.22,1.28,1.28,0,0,1-.75.19,9.35,9.35,0,0,0-1.7.29,18.15,18.15,0,0,1-2.21.41,5.85,5.85,0,0,0-1.47.31,4.55,4.55,0,0,1-1.22.31,2.81,2.81,0,0,0-1.09.33c-.14.13-.33.19-.42.13a.84.84,0,0,0-.58.12,4.61,4.61,0,0,1-1,.33,8.51,8.51,0,0,0-1.18.42,1.46,1.46,0,0,1-.8.21,2.36,2.36,0,0,0-1,.35,12.63,12.63,0,0,1-1.27.57c-1.15.35-6.61,2.92-9.36,4.39a73.28,73.28,0,0,0-14.68,10.75,83.21,83.21,0,0,0-14.29,18.5c-1.89,3.3-18.94,37.93-23.17,47-.31.68-1.44,3-2.5,5.27l-3.88,8.09c-1.06,2.22-2.45,5.11-3.08,6.42-2.63,5.47-4.58,9.59-5.41,11.4-1,2.12-2.46,5.24-10.08,21.17-2.17,4.54-3.37,6.69-4.44,7.93-.33.38-.8,1-1,1.31a28.66,28.66,0,0,1-12,8.9c-2.29.85-5.12,1.54-5.85,1.41a1.08,1.08,0,0,0-.85.1c-.32.27-4.76.37-6.42.14l-2.22-.29c-2.9-.37-8-2.47-11.19-4.62a29.21,29.21,0,0,1-6.86-7.09c-.76-1.13-4.67-8.66-11.09-21.34-1.28-2.54-3-5.94-3.83-7.54-1.57-3.07-7-13.77-10.93-21.48-1.26-2.5-3-5.86-3.79-7.47-2.8-5.47-8.23-16.15-10.73-21.1-1.38-2.71-2.9-5.69-3.38-6.62-1.1-2.11-4.32-8.36-9.35-18.17-2.13-4.15-4.59-8.94-5.47-10.64S24,48.36,24,48.31,24.19,48.22,24.42,48.22Z"/><path class="cls-1" d="M5.83,0C16.76,0,24.12.5,31.2,1.7A92.68,92.68,0,0,1,64.38,14.31,90.52,90.52,0,0,1,81.13,27.53a84,84,0,0,1,8.53,9.83c5.73,7.76,8.14,12.1,18.36,33l7.84,16c1.35,2.74,3.49,7.17,4.78,9.83s2.79,5.77,3.35,6.88l1,2c-.25.54-.51,1.09-.76,1.64l-1.93,4.09c-.65,1.35-1.47,3.07-1.82,3.83s-1.1,2.32-1.65,3.46-1.72,3.58-2.6,5.42-1.65,3.39-1.7,3.44-1.7-3.19-5.71-11.51c-.67-1.37-2.18-4.5-3.38-6.94-4.27-8.75-6-12.34-8.12-16.73-5.76-12-15.28-30.92-17.44-34.67a80.08,80.08,0,0,0-7.57-10.83A101.09,101.09,0,0,0,63.1,37,71.14,71.14,0,0,0,34.71,22.27a67.78,67.78,0,0,0-10.71-2,6.21,6.21,0,0,1-1.34-.17,15.42,15.42,0,0,0-1.83-.3l-2.67-.29c-.8-.08-3-.15-5-.16H9.68c-.62-1.24-1.24-2.48-1.87-3.72-1-2-3.2-6.38-4.83-9.63S0,.06,0,0,2.62,0,5.83,0Z"/><path class="cls-1" d="M148.2,186c.66-1.27,2.5-4.82,4.08-7.9,2.86-5.56,4.07-7.93,6.36-12.36l2.41-4.68c1.46-2.84,14.62-28.68,24.14-47.43,3.76-7.39,7-13.82,7.28-14.27.67-1.24,7.74-15,10.52-20.48,3.39-6.66,3.8-7.42,5.26-9.67a48.05,48.05,0,0,1,11.15-12,48.93,48.93,0,0,1,11.22-6.47c2.25-1,2.64-1.07,2.64-.74,0,.1.12,0,.27-.14.29-.37,1.37-.87,1.58-.74a4.05,4.05,0,0,0,1.3-.33c.83-.29,1.2-.36,1.27-.24s.38.06,1-.2c.89-.37,1.3-.46,1.3-.31,0,.4-6.41,13-13.71,26.86-1.2,2.28-3.34,6.42-4.75,9.21-6.44,12.68-8.95,17.6-11.57,22.63-1.77,3.4-6.05,11.8-15.78,31l-7,13.74c-1.11,2.19-3,5.82-4.09,8.06-5.33,10.48-9.89,19.41-12.38,24.24-4.51,8.78-8,15.6-9.28,18.09-1,2-1.22,2.31-1.31,2a29.81,29.81,0,0,0-1.84-4.13c-2.1-3.93-5-7-9.67-10.11a12,12,0,0,1-1.64-1.21C147,188.39,147.55,187.3,148.2,186Z"/><path class="cls-1" d="M113,213.66a25,25,0,0,1,.91-3.79,19,19,0,0,1,8.62-10.49,13.55,13.55,0,0,1,3.66-1.47.93.93,0,0,0,.55-.14,9.4,9.4,0,0,1,1.64-.48,12.1,12.1,0,0,1,3.9-.26,24.19,24.19,0,0,1,3.17.26,19.84,19.84,0,0,1,4.59,1.54A18.76,18.76,0,0,1,150,210.07,19.34,19.34,0,0,1,147.6,227c-.31.48-.67.88-.79.88s-.33.2-.46.44a7.77,7.77,0,0,1-1.26,1.39c-3,2.8-7.8,5-10.74,4.92a1.67,1.67,0,0,0-1.09.22c-.17.15-.3.18-.36.08a3.59,3.59,0,0,0-1.61,0,1.86,1.86,0,0,1-1-.19c-.24-.12-.39-.13-.51,0-.37.37-4.19-.68-6.25-1.71a17.49,17.49,0,0,1-4.87-3.49,19.33,19.33,0,0,1-5.16-9.27,14,14,0,0,1-.44-3.84C113,215.11,113,213.87,113,213.66Z"/></g></g></svg>